HIERARCHY
ROOT pelvis
{
	OFFSET 0.000000 0.885071 -0.000000
	CHANNELS 6 Xposition Yposition Zposition Xrotation Yrotation Zrotation
	JOINT spine
	{
		OFFSET 0.000000 0.000000 0.000000
		CHANNELS 6 Xposition Yposition Zposition Xrotation Yrotation Zrotation
		JOINT spine.001
		{
			OFFSET 0.000000 0.299006 0.015670
			CHANNELS 3 Xrotation Yrotation Zrotation
			JOINT neck
			{
				OFFSET 0.000000 0.297185 -0.036490
				CHANNELS 6 Xposition Yposition Zposition Xrotation Yrotation Zrotation
				JOINT face
				{
					OFFSET 0.000000 0.218243 -0.003809
					CHANNELS 6 Xposition Yposition Zposition Xrotation Yrotation Zrotation
					End Site
					{
						OFFSET 0.000000 -0.008886 0.035940
					}
				}
			}
			JOINT shoulder.L
			{
				OFFSET 0.000000 0.297185 -0.036490
				CHANNELS 6 Xposition Yposition Zposition Yrotation Xrotation Zrotation
				JOINT upper_arm.L
				{
					OFFSET 0.178344 0.000000 0.000000
					CHANNELS 6 Xposition Yposition Zposition Xrotation Yrotation Zrotation
					JOINT forearm.L
					{
						OFFSET 0.290673 0.001103 -0.000133
						CHANNELS 6 Xposition Yposition Zposition Xrotation Yrotation Zrotation
						End Site
						{
							OFFSET 0.266609 -0.001518 0.004532
						}
					}
				}
			}
			JOINT shoulder.R
			{
				OFFSET 0.000000 0.297185 -0.036490
				CHANNELS 6 Xposition Yposition Zposition Yrotation Xrotation Zrotation
				JOINT upper_arm.R
				{
					OFFSET -0.178344 0.000000 0.000000
					CHANNELS 6 Xposition Yposition Zposition Xrotation Yrotation Zrotation
					JOINT forearm.R
					{
						OFFSET -0.293452 0.001103 -0.000133
						CHANNELS 6 Xposition Yposition Zposition Xrotation Yrotation Zrotation
						End Site
						{
							OFFSET -0.245053 -0.001516 0.004155
						}
					}
				}
			}
		}
	}
	JOINT pelvis.L
	{
		OFFSET 0.000000 0.000000 0.000000
		CHANNELS 6 Xposition Yposition Zposition Yrotation Xrotation Zrotation
		End Site
		{
			OFFSET 0.117780 0.000000 0.000000
		}
	}
	JOINT pelvis.R
	{
		OFFSET 0.000000 0.000000 0.000000
		CHANNELS 6 Xposition Yposition Zposition Yrotation Xrotation Zrotation
		End Site
		{
			OFFSET -0.117780 0.000000 0.000000
		}
	}
	JOINT thigh.L
	{
		OFFSET 0.117780 0.000000 0.000000
		CHANNELS 6 Xposition Yposition Zposition Xrotation Yrotation Zrotation
		JOINT shin.L
		{
			OFFSET 0.022562 -0.430500 0.000000
			CHANNELS 6 Xposition Yposition Zposition Xrotation Yrotation Zrotation
			JOINT foot.L
			{
				OFFSET 0.018941 -0.361414 0.000000
				CHANNELS 6 Xposition Yposition Zposition Xrotation Yrotation Zrotation
				End Site
				{
					OFFSET 0.018478 -0.079113 0.188401
				}
			}
		}
	}
	JOINT thigh.R
	{
		OFFSET -0.117780 0.000000 0.000000
		CHANNELS 6 Xposition Yposition Zposition Xrotation Yrotation Zrotation
		JOINT shin.R
		{
			OFFSET -0.022299 -0.425483 0.000000
			CHANNELS 6 Xposition Yposition Zposition Xrotation Yrotation Zrotation
			JOINT foot.R
			{
				OFFSET -0.020038 -0.382352 0.000000
				CHANNELS 6 Xposition Yposition Zposition Xrotation Yrotation Zrotation
				End Site
				{
					OFFSET -0.020290 -0.086873 0.206881
				}
			}
		}
	}
}
MOTION
Frames: 6
Frame Time: 0.041667
0.016701 -0.029479 0.027393 -0.000000 -3.657460 -0.000000 -0.000000 0.000000 -0.000000 -10.259612 0.119971 -0.839834 10.011073 3.208000 -0.394308 -0.000000 0.297185 -0.036490 11.560461 5.260272 -2.378358 0.000000 0.218243 -0.003809 2.100168 -0.000004 0.000002 -0.000000 0.297185 -0.036490 -0.279664 -0.005559 -2.278469 0.178344 -0.000000 0.000000 -0.644327 -0.780798 -75.849770 0.290673 0.001103 -0.000133 -3.247210 -22.680039 -16.786872 -0.000000 0.297185 -0.036490 -0.286431 -0.005830 -2.333652 -0.178343 0.000000 -0.000000 -0.013835 -0.035147 78.645052 -0.293452 0.001103 -0.000133 -2.301097 17.468661 15.880854 -0.000000 0.000000 -0.000000 0.000020 0.000000 -0.727432 0.000000 0.000000 -0.000000 0.000000 -0.000000 -0.727432 0.117770 -0.001495 -0.000000 9.101218 0.516569 0.483358 0.022562 -0.430500 0.000000 -3.229686 -0.158466 -0.383423 0.018941 -0.361414 0.000000 -8.811003 8.203523 5.074914 -0.117770 0.001495 -0.000000 7.127267 -0.367066 0.111080 -0.022299 -0.425483 0.000000 0.794113 -0.041939 -0.046658 -0.020038 -0.382352 0.000000 -13.477541 -4.279623 -3.805330 
0.017690 -0.027957 0.028484 -0.000000 -3.707647 -0.000000 0.000000 0.000000 -0.000000 -10.523486 0.095840 -0.660010 10.013168 3.502241 -0.430569 0.000000 0.297185 -0.036490 12.140913 5.851071 -2.748230 0.000000 0.218242 -0.003809 1.921188 -0.000001 0.000002 0.000000 0.297185 -0.036490 -0.235507 -0.003944 -1.918722 0.178344 -0.000000 0.000000 -0.887763 -1.096709 -75.800196 0.290673 0.001103 -0.000133 -3.243413 -21.770606 -17.574838 -0.000000 0.297185 -0.036490 -0.242312 -0.004171 -1.973908 -0.178343 -0.000000 -0.000000 0.317730 -0.446260 78.188659 -0.293452 0.001103 -0.000133 -2.296304 17.576674 15.731807 0.000000 0.000000 -0.000000 0.000000 -0.000000 -0.540892 0.000000 0.000000 -0.000000 0.000000 -0.000000 -0.540892 0.117775 -0.001112 -0.000000 9.227644 0.529548 0.554734 0.022562 -0.430500 0.000000 -3.515751 -0.168271 -0.521323 0.018941 -0.361414 0.000000 -7.948429 8.175175 4.894034 -0.117775 0.001112 0.000000 7.233715 -0.377982 0.025601 -0.022299 -0.425483 0.000000 1.117405 -0.060872 -0.236370 -0.020038 -0.382352 0.000000 -14.201293 -3.519679 -3.487933 
0.018457 -0.026948 0.029131 -0.000000 -3.667754 -0.000000 -0.000000 0.000000 -0.000000 -10.699115 0.078150 -0.532476 10.014072 3.625158 -0.445704 -0.000000 0.297185 -0.036490 12.589191 6.527695 -3.048741 -0.000000 0.218243 -0.003809 1.836485 -0.000003 -0.000000 -0.000000 0.297185 -0.036490 -0.202440 -0.002918 -1.648467 0.178344 -0.000000 -0.000000 -1.028265 -1.279635 -75.757398 0.290673 0.001103 -0.000133 -3.242190 -21.231587 -18.081512 -0.000000 0.297185 -0.036490 -0.209183 -0.003115 -1.703575 -0.178343 -0.000000 -0.000000 0.584104 -0.781592 77.806728 -0.293452 0.001103 -0.000133 -2.330297 17.786139 15.751914 -0.000000 0.000000 -0.000000 0.000035 0.000000 -0.406754 -0.000000 0.000000 -0.000000 0.000000 -0.000000 -0.406754 0.117777 -0.000836 -0.000000 9.302702 0.538839 0.615532 0.022562 -0.430500 0.000000 -3.762316 -0.177020 -0.614295 0.018941 -0.361414 0.000000 -7.139993 8.171125 4.737131 -0.117777 0.000836 -0.000000 7.323711 -0.385862 -0.023674 -0.022299 -0.425483 0.000000 1.298764 -0.072107 -0.355591 -0.020038 -0.382352 0.000000 -14.620114 -3.118760 -3.320999 
0.019244 -0.026525 0.029072 -0.000000 -3.485090 -0.000000 -0.000000 -0.000000 -0.000000 -10.755303 0.065815 -0.446909 10.013399 3.528175 -0.433762 0.000000 0.297185 -0.036490 12.884045 7.217660 -3.302422 -0.000000 0.218242 -0.003809 1.862249 -0.000002 -0.000001 -0.000000 0.297185 -0.036490 -0.184407 -0.002417 -1.501713 0.178344 -0.000000 -0.000000 -1.067966 -1.332956 -75.682895 0.290673 0.001103 -0.000133 -3.230827 -21.010244 -18.234906 -0.000000 0.297185 -0.036490 -0.191162 -0.002598 -1.556863 -0.178343 0.000000 -0.000000 0.745630 -0.988313 77.506220 -0.293452 0.001103 -0.000133 -2.400039 18.048920 15.962630 -0.000000 -0.000000 -0.000000 -0.000031 -0.000000 -0.316663 -0.000000 0.000000 -0.000000 0.000000 -0.000000 -0.316692 0.117778 -0.000651 -0.000000 9.276989 0.538444 0.629077 0.022562 -0.430500 0.000000 -3.910764 -0.183307 -0.634872 0.018941 -0.361414 0.000000 -6.481054 8.126031 4.589908 -0.117778 0.000651 -0.000000 7.377243 -0.390576 -0.052838 -0.022299 -0.425483 0.000000 1.361610 -0.075707 -0.364636 -0.020038 -0.382352 0.000000 -14.729047 -3.127537 -3.342098 
0.020401 -0.026439 0.028326 -0.000000 -3.200148 -0.000000 -0.000000 0.000000 -0.000000 -10.720330 0.052802 -0.359299 10.011745 3.300058 -0.405640 -0.000000 0.297185 -0.036490 13.106544 7.776060 -3.558732 -0.000000 0.218242 -0.003809 1.919471 0.000000 -0.000001 -0.000000 0.297185 -0.036490 -0.178273 -0.002260 -1.451739 0.178344 -0.000000 -0.000000 -1.083416 -1.356960 -75.526142 0.290673 0.001103 -0.000133 -3.190618 -20.840154 -18.172140 -0.000000 0.297185 -0.036490 -0.185051 -0.002435 -1.506889 -0.178344 -0.000000 -0.000000 0.814753 -1.079863 77.248716 -0.293452 0.001103 -0.000133 -2.481402 18.283052 16.274739 -0.000000 0.000000 0.000000 0.000054 0.000000 -0.236953 -0.000000 0.000000 0.000000 0.000000 -0.000000 -0.236953 0.117779 -0.000487 0.000000 9.151752 0.526272 0.568359 0.022562 -0.430500 0.000000 -3.950820 -0.186832 -0.587249 0.018941 -0.361414 0.000000 -6.039630 7.980280 4.436804 -0.117779 0.000487 -0.000000 7.373060 -0.393668 -0.104152 -0.022299 -0.425483 0.000000 1.428781 -0.078372 -0.279061 -0.020038 -0.382352 0.000000 -14.733975 -3.342485 -3.466615 
0.021821 -0.026465 0.027129 -0.000000 -2.911098 -0.000000 0.000000 -0.000000 0.000000 -10.641189 0.038045 -0.260170 10.010067 3.055854 -0.375571 0.000000 0.297185 -0.036490 13.316578 8.187458 -3.803440 -0.000000 0.218242 -0.003809 1.929973 -0.000005 -0.000001 0.000000 0.297185 -0.036490 -0.178915 -0.002284 -1.457050 0.178344 -0.000000 -0.000000 -1.114594 -1.403885 -75.284094 0.290673 0.001103 -0.000133 -3.144474 -20.635528 -18.108008 0.000000 0.297185 -0.036490 -0.185656 -0.002457 -1.512236 -0.178343 0.000000 0.000000 0.841498 -1.117895 77.022705 -0.293452 0.001103 -0.000133 -2.563738 18.496980 16.605074 0.000000 -0.000000 0.000000 -0.000018 -0.000000 -0.162521 0.000000 0.000000 0.000000 0.000000 -0.000000 -0.162521 0.117779 -0.000334 -0.000000 8.992627 0.508826 0.463710 0.022562 -0.430500 0.000000 -3.967328 -0.190367 -0.507891 0.018941 -0.361414 0.000000 -5.764961 7.774074 4.287513 -0.117779 0.000334 0.000000 7.300778 -0.394888 -0.183726 -0.022299 -0.425483 0.000000 1.581249 -0.085164 -0.165611 -0.020038 -0.382352 0.000000 -14.785152 -3.552535 -3.595336 
